<svg viewBox="0 0 25 25" fill="none" xmlns="http://www.w3.org/2000/svg">
<symbol id="telegram_icon">
  <path d="M12.5 0C5.594 0 0 5.595 0 12.5S5.595 25 12.5 25 25 19.405 25 12.5 19.405 0 12.5 0zm6.14 8.564-2.052 9.668c-.152.685-.56.851-1.13.528l-3.124-2.303-1.507 1.452c-.167.165-.308.306-.63.306l.222-3.18 5.79-5.233c.252-.222-.056-.347-.39-.126l-7.156 4.506-3.085-.963c-.671-.211-.686-.67.14-.993L17.772 7.58c.56-.202 1.048.136.867.983z" fill="#150A18"/>
  <path d="m18.64 8.564-2.052 9.668c-.152.685-.56.851-1.13.528l-3.124-2.303-1.507 1.452c-.167.165-.308.306-.63.306l.222-3.18 5.79-5.233c.252-.222-.056-.347-.39-.126l-7.156 4.506-3.085-.963c-.671-.211-.686-.67.14-.993L17.772 7.58c.56-.202 1.048.136.867.983z" fill="CurrentColor"/>
</symbol>
</svg>