<svg viewBox="0 0 25 25" fill="none" xmlns="http://www.w3.org/2000/svg">
<symbol id="vk_icon">
<path d="M12.5 0C5.596 0 0 5.596 0 12.5S5.596 25 12.5 25 25 19.404 25 12.5 19.404 0 12.5 0zm4.807 14.103s1.106 1.09 1.378 1.597a.1.1 0 0 1 .014.027c.11.184.137.33.081.438-.09.18-.402.269-.51.276h-1.952c-.136.001-.42-.034-.763-.27-.264-.185-.524-.488-.778-.783v-.002c-.38-.44-.708-.82-1.039-.82a.39.39 0 0 0-.123.02c-.25.08-.57.437-.57 1.388 0 .297-.235.467-.4.467h-.895c-.305 0-1.892-.107-3.298-1.59-1.722-1.816-3.27-5.46-3.284-5.493-.098-.236.104-.362.324-.362h1.973c.263 0 .349.16.409.302.07.165.328.823.75 1.562.687 1.205 1.108 1.695 1.445 1.695a.39.39 0 0 0 .18-.047c.44-.245.358-1.814.339-2.14-.002-.06-.003-.701-.228-1.009-.162-.223-.436-.308-.603-.34a.716.716 0 0 1 .258-.22c.302-.15.847-.172 1.387-.172h.3c.587.007.738.045.95.099.43.102.439.38.4 1.33-.01.268-.022.573-.022.933l-.004.25-.001.003c-.014.482-.03 1.028.311 1.253a.26.26 0 0 0 .15.043c.118 0 .475 0 1.44-1.658.298-.535.557-1.089.776-1.66.02-.033.077-.137.144-.178a.39.39 0 0 1 .162-.037h2.319c.253 0 .427.037.46.135.056.155-.011.628-1.07 2.061l-.473.624c-.96 1.258-.96 1.321.06 2.276z" fill="#150A18"/>
<path d="M17.307 14.103s1.106 1.09 1.378 1.597a.1.1 0 0 1 .014.027c.11.184.137.33.081.438-.09.18-.402.269-.51.276h-1.952c-.136.001-.42-.034-.763-.27-.264-.185-.524-.488-.778-.783v-.002c-.38-.44-.708-.82-1.039-.82a.39.39 0 0 0-.123.02c-.25.08-.57.437-.57 1.388 0 .297-.235.467-.4.467h-.895c-.305 0-1.892-.107-3.298-1.59-1.722-1.816-3.27-5.46-3.284-5.493-.098-.236.104-.362.324-.362h1.973c.263 0 .349.16.409.302.07.165.328.823.75 1.562.687 1.205 1.108 1.695 1.445 1.695a.39.39 0 0 0 .18-.047c.44-.245.358-1.814.339-2.14-.002-.06-.003-.701-.228-1.009-.162-.223-.436-.308-.603-.34a.716.716 0 0 1 .258-.22c.302-.15.847-.172 1.387-.172h.3c.587.007.738.045.95.099.43.102.439.38.4 1.33-.01.268-.022.573-.022.933l-.004.25-.001.003c-.014.482-.03 1.028.311 1.253a.26.26 0 0 0 .15.043c.118 0 .475 0 1.44-1.658.298-.535.557-1.089.776-1.66.02-.033.077-.137.144-.178a.39.39 0 0 1 .162-.037h2.319c.253 0 .427.037.46.135.056.155-.011.628-1.07 2.061l-.473.624c-.96 1.258-.96 1.321.06 2.276z" fill="CurrentColor"/>
</symbol>
</svg>