<svg viewBox="0 0 25 25" fill="none" xmlns="http://www.w3.org/2000/svg">
<symbol id="whatsapp_icon">
  <circle cx="12.5" cy="12.5" r="12.5" fill="#150A18"/>
  <path d="M17.105 7.892A6.417 6.417 0 0 0 12.526 6C8.96 6 6.052 8.893 6.052 12.44c0 1.14.3 2.244.863 3.22L6 19l3.43-.897a6.5 6.5 0 0 0 3.096.786c3.567 0 6.474-2.893 6.474-6.442 0-1.722-.673-3.34-1.895-4.556zm-4.579 9.906c-.967 0-1.914-.26-2.744-.748l-.196-.117-2.038.533.542-1.976-.13-.201a5.35 5.35 0 0 1-.823-2.849c0-2.95 2.417-5.354 5.383-5.354 1.437 0 2.79.559 3.802 1.573a5.315 5.315 0 0 1 1.574 3.788c.013 2.95-2.404 5.35-5.37 5.35zm2.953-4.005c-.164-.078-.961-.468-1.105-.526-.15-.052-.255-.078-.366.078-.112.162-.42.526-.51.63-.092.11-.19.124-.353.04-.164-.079-.686-.254-1.3-.8-.484-.43-.804-.956-.902-1.118-.091-.163-.013-.247.072-.332.072-.07.163-.188.242-.28.077-.09.11-.161.162-.266.052-.11.026-.202-.013-.28a53.21 53.21 0 0 1-.497-1.196c-.131-.312-.268-.273-.366-.28h-.314c-.11 0-.28.04-.43.202-.145.163-.563.552-.563 1.345 0 .794.582 1.561.66 1.665.078.11 1.143 1.736 2.763 2.431.386.17.686.267.921.339a2.25 2.25 0 0 0 1.02.064c.313-.046.96-.39 1.09-.767.138-.377.138-.696.092-.767-.046-.072-.144-.104-.307-.182z" fill="CurrentColor"/>
</symbol>
</svg>